<svg width="648px" height="119.8px" xmlns="http://www.w3.org/2000/svg" viewBox="-73.97999267578126 15.079997253417972 647.9599853515625 119.84000549316406" style="background: rgba(0, 0, 0, 0)" preserveAspectRatio="xMidYMid"><defs><linearGradient id="editing-gradient-gradient" x1="0" x2="1" y1="0.5" y2="0.5" gradientUnits="objectBoundingBox"><stop offset="0" stop-color="#0a5151"></stop><stop offset="1" stop-color="#00ffff"></stop></linearGradient></defs><g><g transform="matrix(0.9,0,0,1,35.6,104)"><path d="M -100.1 0 L -113.8 0 L -105.8 -41.6 L -92 -41.6 L -100.1 0 Z M -45.2 1.3 L -45.2 1.3 L -45.2 1.3 Q -52.8 1.3 -52.8 -4.7 L -52.8 -4.7 L -52.8 -4.7 Q -52.8 -7.2 -51.7 -12.2 L -51.7 -12.2 L -51.7 -12.2 Q -50.6 -17.3 -50.3 -19.3 L -50.3 -19.3 L -50.3 -19.3 Q -49.4 -23.9 -49.4 -25.3 L -49.4 -25.3 L -49.4 -25.3 Q -49.4 -28.5 -51.8 -28.5 L -51.8 -28.5 L -51.8 -28.5 Q -53.3 -28.5 -54.8 -26.4 L -54.8 -26.4 L -54.8 -26.4 Q -56.4 -24.2 -57.1 -19.8 L -57.1 -19.8 L -61 0 L -73.2 1.3 L -69.8 -15.9 L -69.8 -15.9 Q -69.3 -18.7 -68.8 -21.9 L -68.8 -21.9 L -68.8 -21.9 Q -68.3 -25.1 -68.3 -25.6 L -68.3 -25.6 L -68.3 -25.6 Q -68.3 -28.5 -70.4 -28.5 L -70.4 -28.5 L -70.4 -28.5 Q -71.9 -28.5 -73.4 -26.4 L -73.4 -26.4 L -73.4 -26.4 Q -75 -24.2 -75.9 -19.8 L -75.9 -19.8 L -79.7 0 L -92.1 1.3 L -85.5 -32.1 L -75.3 -33.4 L -76.3 -27 L -76.3 -27 Q -74.7 -30.4 -71.7 -31.9 L -71.7 -31.9 L -71.7 -31.9 Q -68.6 -33.4 -63.9 -33.4 L -63.9 -33.4 L -63.9 -33.4 Q -61.2 -33.4 -59.4 -32.1 L -59.4 -32.1 L -59.4 -32.1 Q -57.7 -30.7 -57.1 -28.6 L -57.1 -28.6 L -57.1 -28.6 Q -56 -30.8 -53.3 -32.1 L -53.3 -32.1 L -53.3 -32.1 Q -50.6 -33.4 -47.2 -33.4 L -47.2 -33.4 L -47.2 -33.4 Q -43.8 -33.4 -42.2 -32.7 L -42.2 -32.7 L -42.2 -32.7 Q -40.5 -31.9 -39.5 -30.7 L -39.5 -30.7 L -39.5 -30.7 Q -37.8 -28.5 -37.8 -24.5 L -37.8 -24.5 L -37.8 -24.5 Q -37.8 -20.5 -39.5 -12.3 L -39.5 -12.3 L -39.5 -12.3 Q -40.4 -8.2 -40.4 -6.8 L -40.4 -6.8 L -40.4 -6.8 Q -40.4 -5.3 -39.5 -4.4 L -39.5 -4.4 L -39.5 -4.4 Q -38.7 -3.5 -37.4 -3.4 L -37.4 -3.4 L -37.4 -3.4 Q -38 -1.3 -40.2 0 L -40.2 0 L -40.2 0 Q -42.4 1.3 -45.2 1.3 Z M -29.8 -1.9 L -29.8 -1.9 L -29.8 -1.9 Q -31.3 -3.5 -31.9 -6.1 L -31.9 -6.1 L -31.9 -6.1 Q -32.6 -8.7 -32.6 -12.9 L -32.6 -12.9 L -32.6 -12.9 Q -32.6 -17.1 -31.2 -21 L -31.2 -21 L -31.2 -21 Q -29.7 -24.8 -27.1 -27.6 L -27.1 -27.6 L -27.1 -27.6 Q -21.6 -33.4 -12.7 -33.4 L -12.7 -33.4 L -12.7 -33.4 Q -9.5 -33.4 -7.2 -32.3 L -7.2 -32.3 L 3.6 -33.4 L -1 -8.8 L -1 -8.8 Q -1.2 -8.1 -1.2 -6.7 L -1.2 -6.7 L -1.2 -6.7 Q -1.2 -5.3 -0.4 -4.4 L -0.4 -4.4 L -0.4 -4.4 Q 0.5 -3.5 1.7 -3.4 L 1.7 -3.4 L 1.7 -3.4 Q 1.1 -1.3 -1.2 0 L -1.2 0 L -1.2 0 Q -3.5 1.3 -6.1 1.3 L -6.1 1.3 L -6.1 1.3 Q -8.7 1.3 -10.4 0.3 L -10.4 0.3 L -10.4 0.3 Q -12.1 -0.7 -12.6 -2.3 L -12.6 -2.3 L -12.6 -2.3 Q -13.6 -0.8 -15.8 0.3 L -15.8 0.3 L -15.8 0.3 Q -17.9 1.3 -20.8 1.3 L -20.8 1.3 L -20.8 1.3 Q -23.7 1.3 -26 0.5 L -26 0.5 L -26 0.5 Q -28.3 -0.2 -29.8 -1.9 Z M -16.5 -27.5 L -16.5 -27.5 L -16.5 -27.5 Q -17.2 -26.3 -17.9 -24.4 L -17.9 -24.4 L -17.9 -24.4 Q -18.5 -22.5 -19.5 -17.4 L -19.5 -17.4 L -19.5 -17.4 Q -20.6 -12.2 -20.6 -8.6 L -20.6 -8.6 L -20.6 -8.6 Q -20.6 -4.9 -20 -3.8 L -20 -3.8 L -20 -3.8 Q -19.4 -2.8 -18.4 -2.8 L -18.4 -2.8 L -18.4 -2.8 Q -16.4 -2.8 -14.9 -4.7 L -14.9 -4.7 L -14.9 -4.7 Q -13.5 -6.6 -12.9 -10 L -12.9 -10 L -9.6 -28.5 L -9.6 -28.5 Q -10.9 -29.6 -12.4 -29.6 L -12.4 -29.6 L -12.4 -29.6 Q -14 -29.6 -14.9 -29.1 L -14.9 -29.1 L -14.9 -29.1 Q -15.8 -28.6 -16.5 -27.5 Z M 11.2 -26.3 L 11.2 -26.3 L 11.2 -26.3 Q 13.4 -29.4 16.6 -31.4 L 16.6 -31.4 L 16.6 -31.4 Q 19.9 -33.4 23.8 -33.4 L 23.8 -33.4 L 23.8 -33.4 Q 27.8 -33.4 29.7 -32.1 L 29.7 -32.1 L 42 -33.4 L 37.8 -9.2 L 37.8 -9.2 Q 35.6 3.2 30.9 8 L 30.9 8 L 30.9 8 Q 26.4 12.6 17.7 12.6 L 17.7 12.6 L 17.7 12.6 Q 11.1 12.6 7.3 10.5 L 7.3 10.5 L 7.3 10.5 Q 3.6 8.4 3.6 5 L 3.6 5 L 3.6 5 Q 3.6 2.4 5.5 0.9 L 5.5 0.9 L 5.5 0.9 Q 7.5 -0.6 10.5 -0.6 L 10.5 -0.6 L 10.5 -0.6 Q 13.1 -0.6 15.1 0.6 L 15.1 0.6 L 15.1 0.6 Q 16.3 1.3 16.9 2.1 L 16.9 2.1 L 16.9 2.1 Q 15.5 3.4 15.5 5.5 L 15.5 5.5 L 15.5 5.5 Q 15.5 8.2 18 8.2 L 18 8.2 L 18 8.2 Q 22.2 8.2 24.6 -1.8 L 24.6 -1.8 L 24.6 -1.8 Q 25.3 -4.5 25.9 -7.2 L 25.9 -7.2 L 25.9 -7.2 Q 23 -3.7 16.6 -3.7 L 16.6 -3.7 L 16.6 -3.7 Q 12.1 -3.7 9.5 -5.9 L 9.5 -5.9 L 9.5 -5.9 Q 7 -8 7 -13 L 7 -13 L 7 -13 Q 7 -16.2 8 -19.7 L 8 -19.7 L 8 -19.7 Q 9.1 -23.3 11.2 -26.3 Z M 19.4 -12.8 L 19.4 -12.8 L 19.4 -12.8 Q 19.4 -8.6 21.6 -8.6 L 21.6 -8.6 L 21.6 -8.6 Q 23.1 -8.6 24.6 -10.2 L 24.6 -10.2 L 24.6 -10.2 Q 25.7 -11.5 26.2 -13.5 L 26.2 -13.5 L 29.4 -29.7 L 29.4 -29.7 Q 29.1 -29.7 28.8 -29.9 L 28.8 -29.9 L 28.8 -29.9 Q 28.1 -30.1 27.3 -30.1 L 27.3 -30.1 L 27.3 -30.1 Q 23.5 -30.1 21.2 -23.8 L 21.2 -23.8 L 21.2 -23.8 Q 19.4 -18.9 19.4 -12.8 Z M 70 -10.6 L 70 -10.6 L 70 -10.6 Q 71.6 -9.6 71.6 -7.2 L 71.6 -7.2 L 71.6 -7.2 Q 71.6 -4.8 70.4 -3.3 L 70.4 -3.3 L 70.4 -3.3 Q 69.2 -1.8 67.2 -0.8 L 67.2 -0.8 L 67.2 -0.8 Q 63.2 1.3 58.9 1.3 L 58.9 1.3 L 58.9 1.3 Q 54.5 1.3 52 0.3 L 52 0.3 L 52 0.3 Q 49.4 -0.6 47.7 -2.4 L 47.7 -2.4 L 47.7 -2.4 Q 44.4 -5.7 44.4 -11.8 L 44.4 -11.8 L 44.4 -11.8 Q 44.4 -21.4 49.5 -27.1 L 49.5 -27.1 L 49.5 -27.1 Q 55.1 -33.4 64.7 -33.4 L 64.7 -33.4 L 64.7 -33.4 Q 70.7 -33.4 73.7 -30.9 L 73.7 -30.9 L 73.7 -30.9 Q 75.9 -29 75.9 -25.9 L 75.9 -25.9 L 75.9 -25.9 Q 75.9 -14.8 56.7 -14.8 L 56.7 -14.8 L 56.7 -14.8 Q 56.5 -13.2 56.5 -11.8 L 56.5 -11.8 L 56.5 -11.8 Q 56.5 -8.9 57.8 -7.8 L 57.8 -7.8 L 57.8 -7.8 Q 59.1 -6.7 61.4 -6.7 L 61.4 -6.7 L 61.4 -6.7 Q 63.8 -6.7 66.4 -7.8 L 66.4 -7.8 L 66.4 -7.8 Q 68.9 -8.9 70 -10.6 Z M 57.2 -17.5 L 57.2 -17.5 L 57.2 -17.5 Q 61.6 -17.5 64.2 -20.3 L 64.2 -20.3 L 64.2 -20.3 Q 66.8 -22.9 66.8 -27.1 L 66.8 -27.1 L 66.8 -27.1 Q 66.8 -28.6 66.3 -29.4 L 66.3 -29.4 L 66.3 -29.4 Q 65.7 -30.2 64.7 -30.2 L 64.7 -30.2 L 64.7 -30.2 Q 63.6 -30.2 62.7 -29.8 L 62.7 -29.8 L 62.7 -29.8 Q 61.8 -29.4 60.8 -28 L 60.8 -28 L 60.8 -28 Q 58.5 -24.8 57.2 -17.5 Z M 96.9 -22.1 L 96.9 -22.1 L 96.9 -22.1 Q 97.7 -24.4 97.7 -26.5 L 97.7 -26.5 L 97.7 -26.5 Q 97.7 -30.2 94.7 -30.2 L 94.7 -30.2 L 94.7 -30.2 Q 93.1 -30.2 91.8 -28.8 L 91.8 -28.8 L 91.8 -28.8 Q 90.6 -27.3 90.6 -25.6 L 90.6 -25.6 L 90.6 -25.6 Q 90.6 -24.3 91.6 -23.3 L 91.6 -23.3 L 91.6 -23.3 Q 93 -21.9 96.7 -19.7 L 96.7 -19.7 L 96.7 -19.7 Q 100.4 -17.4 101.9 -15.5 L 101.9 -15.5 L 101.9 -15.5 Q 103.3 -13.7 103.3 -11.1 L 103.3 -11.1 L 103.3 -11.1 Q 103.3 -8.6 102.1 -6.2 L 102.1 -6.2 L 102.1 -6.2 Q 100.8 -3.9 98.6 -2.3 L 98.6 -2.3 L 98.6 -2.3 Q 93.9 1.3 86.3 1.3 L 86.3 1.3 L 86.3 1.3 Q 82.2 1.3 79.1 -0.9 L 79.1 -0.9 L 79.1 -0.9 Q 75.9 -3 75.9 -5.4 L 75.9 -5.4 L 75.9 -5.4 Q 75.9 -7.9 77.7 -9.3 L 77.7 -9.3 L 77.7 -9.3 Q 79.5 -10.8 82.2 -10.8 L 82.2 -10.8 L 82.2 -10.8 Q 84.8 -10.8 86.5 -9.8 L 86.5 -9.8 L 86.5 -9.8 Q 85.6 -7.7 85.6 -6.3 L 85.6 -6.3 L 85.6 -6.3 Q 85.6 -2.1 89.2 -2.1 L 89.2 -2.1 L 89.2 -2.1 Q 90.7 -2.1 91.7 -3.1 L 91.7 -3.1 L 91.7 -3.1 Q 92.7 -4 92.7 -5.7 L 92.7 -5.7 L 92.7 -5.7 Q 92.7 -8.9 87.3 -12.3 L 87.3 -12.3 L 87.3 -12.3 Q 82.9 -15.2 81.9 -16.3 L 81.9 -16.3 L 81.9 -16.3 Q 80.2 -18.3 80.2 -20.8 L 80.2 -20.8 L 80.2 -20.8 Q 80.2 -23.4 81.4 -25.8 L 81.4 -25.8 L 81.4 -25.8 Q 82.6 -28.2 84.8 -29.9 L 84.8 -29.9 L 84.8 -29.9 Q 89.4 -33.4 97.4 -33.4 L 97.4 -33.4 L 97.4 -33.4 Q 101.5 -33.4 103.9 -31.7 L 103.9 -31.7 L 103.9 -31.7 Q 106.3 -30.1 106.3 -27.3 L 106.3 -27.3 L 106.3 -27.3 Q 106.3 -24.6 104.6 -23 L 104.6 -23 L 104.6 -23 Q 103 -21.4 99.9 -21.4 L 99.9 -21.4 L 99.9 -21.4 Q 97.9 -21.4 96.9 -22.1 Z M 147.1 -20.3 L 159.9 -21.4 L 159.9 -21.4 Q 155.3 -11.5 155.3 0.1 L 155.3 0.1 L 155.3 0.1 Q 153.6 1.3 151.1 1.3 L 151.1 1.3 L 151.1 1.3 Q 148.6 1.3 147.1 0.1 L 147.1 0.1 L 147.1 0.1 Q 145.5 -1.1 145.2 -2.3 L 145.2 -2.3 L 145.2 -2.3 Q 143.6 -0.6 141 0.3 L 141 0.3 L 141 0.3 Q 138.5 1.3 135.8 1.3 L 135.8 1.3 L 135.8 1.3 Q 133.1 1.3 130.7 0.4 L 130.7 0.4 L 130.7 0.4 Q 128.4 -0.5 126.5 -2.5 L 126.5 -2.5 L 126.5 -2.5 Q 122.5 -6.7 122.5 -14.9 L 122.5 -14.9 L 122.5 -14.9 Q 122.5 -27.5 129.2 -35 L 129.2 -35 L 129.2 -35 Q 136.2 -42.8 148.5 -42.8 L 148.5 -42.8 L 148.5 -42.8 Q 157 -42.8 160 -38.4 L 160 -38.4 L 160 -38.4 Q 160.9 -37 160.9 -35.4 L 160.9 -35.4 L 160.9 -35.4 Q 160.9 -33.7 160.2 -32.3 L 160.2 -32.3 L 160.2 -32.3 Q 159.5 -30.9 158.3 -29.7 L 158.3 -29.7 L 158.3 -29.7 Q 155.6 -27.2 152.3 -27.2 L 152.3 -27.2 L 152.3 -27.2 Q 151 -27.2 149.7 -27.7 L 149.7 -27.7 L 149.7 -27.7 Q 150 -29.5 150 -31.7 L 150 -31.7 L 150 -31.7 Q 150 -34 149.8 -35 L 149.8 -35 L 149.8 -35 Q 149.6 -36 149.3 -36.8 L 149.3 -36.8 L 149.3 -36.8 Q 148.5 -38.5 146.7 -38.5 L 146.7 -38.5 L 146.7 -38.5 Q 144.9 -38.5 142.9 -36.6 L 142.9 -36.6 L 142.9 -36.6 Q 140.9 -34.6 139.3 -31.5 L 139.3 -31.5 L 139.3 -31.5 Q 135.9 -24.4 135.9 -15.9 L 135.9 -15.9 L 135.9 -15.9 Q 135.9 -12 137.4 -9.3 L 137.4 -9.3 L 137.4 -9.3 Q 139 -6.2 141.9 -6.2 L 141.9 -6.2 L 141.9 -6.2 Q 142.9 -6.2 143.8 -6.7 L 143.8 -6.7 L 143.8 -6.7 Q 144.7 -7.2 145.1 -7.6 L 145.1 -7.6 L 147.1 -20.3 Z M 165.7 -1.9 L 165.7 -1.9 L 165.7 -1.9 Q 164.2 -3.5 163.5 -6.1 L 163.5 -6.1 L 163.5 -6.1 Q 162.9 -8.7 162.9 -12.9 L 162.9 -12.9 L 162.9 -12.9 Q 162.9 -17.1 164.3 -21 L 164.3 -21 L 164.3 -21 Q 165.8 -24.8 168.4 -27.6 L 168.4 -27.6 L 168.4 -27.6 Q 173.8 -33.4 182.8 -33.4 L 182.8 -33.4 L 182.8 -33.4 Q 186 -33.4 188.3 -32.3 L 188.3 -32.3 L 199.1 -33.4 L 194.4 -8.8 L 194.4 -8.8 Q 194.3 -8.1 194.3 -6.7 L 194.3 -6.7 L 194.3 -6.7 Q 194.3 -5.3 195.1 -4.4 L 195.1 -4.4 L 195.1 -4.4 Q 196 -3.5 197.2 -3.4 L 197.2 -3.4 L 197.2 -3.4 Q 196.6 -1.3 194.3 0 L 194.3 0 L 194.3 0 Q 192 1.3 189.4 1.3 L 189.4 1.3 L 189.4 1.3 Q 186.8 1.3 185.1 0.3 L 185.1 0.3 L 185.1 0.3 Q 183.4 -0.7 182.9 -2.3 L 182.9 -2.3 L 182.9 -2.3 Q 181.8 -0.8 179.7 0.3 L 179.7 0.3 L 179.7 0.3 Q 177.6 1.3 174.7 1.3 L 174.7 1.3 L 174.7 1.3 Q 171.8 1.3 169.5 0.5 L 169.5 0.5 L 169.5 0.5 Q 167.2 -0.2 165.7 -1.9 Z M 179 -27.5 L 179 -27.5 L 179 -27.5 Q 178.3 -26.3 177.6 -24.4 L 177.6 -24.4 L 177.6 -24.4 Q 177 -22.5 176 -17.4 L 176 -17.4 L 176 -17.4 Q 174.9 -12.2 174.9 -8.6 L 174.9 -8.6 L 174.9 -8.6 Q 174.9 -4.9 175.5 -3.8 L 175.5 -3.8 L 175.5 -3.8 Q 176 -2.8 177.1 -2.8 L 177.1 -2.8 L 177.1 -2.8 Q 179.1 -2.8 180.6 -4.7 L 180.6 -4.7 L 180.6 -4.7 Q 182 -6.6 182.6 -10 L 182.6 -10 L 185.9 -28.5 L 185.9 -28.5 Q 184.6 -29.6 183.1 -29.6 L 183.1 -29.6 L 183.1 -29.6 Q 181.5 -29.6 180.6 -29.1 L 180.6 -29.1 L 180.6 -29.1 Q 179.7 -28.6 179 -27.5 Z M 217.6 -3.5 L 217.6 -3.5 L 217.6 -3.5 Q 215.6 1.3 209.4 1.3 L 209.4 1.3 L 209.4 1.3 Q 206.2 1.3 204.2 -0.9 L 204.2 -0.9 L 204.2 -0.9 Q 202.6 -2.8 202.6 -4.8 L 202.6 -4.8 L 202.6 -4.8 Q 202.6 -9.6 204.8 -19.9 L 204.8 -19.9 L 209.4 -44.1 L 222.2 -45.4 L 216.1 -13.5 L 216.1 -13.5 Q 215 -8.8 215 -7.2 L 215 -7.2 L 215 -7.2 Q 215 -3.6 217.6 -3.5 Z M 238 -3.5 L 238 -3.5 L 238 -3.5 Q 236 1.3 229.8 1.3 L 229.8 1.3 L 229.8 1.3 Q 226.6 1.3 224.6 -0.9 L 224.6 -0.9 L 224.6 -0.9 Q 223 -2.8 223 -4.8 L 223 -4.8 L 223 -4.8 Q 223 -9.6 225.2 -19.9 L 225.2 -19.9 L 229.8 -44.1 L 242.6 -45.4 L 236.5 -13.5 L 236.5 -13.5 Q 235.4 -8.8 235.4 -7.2 L 235.4 -7.2 L 235.4 -7.2 Q 235.4 -3.6 238 -3.5 Z M 268.8 -10.6 L 268.8 -10.6 L 268.8 -10.6 Q 270.4 -9.6 270.4 -7.2 L 270.4 -7.2 L 270.4 -7.2 Q 270.4 -4.8 269.2 -3.3 L 269.2 -3.3 L 269.2 -3.3 Q 268 -1.8 266.1 -0.8 L 266.1 -0.8 L 266.1 -0.8 Q 262 1.3 257.7 1.3 L 257.7 1.3 L 257.7 1.3 Q 253.3 1.3 250.8 0.3 L 250.8 0.3 L 250.8 0.3 Q 248.2 -0.6 246.5 -2.4 L 246.5 -2.4 L 246.5 -2.4 Q 243.2 -5.7 243.2 -11.8 L 243.2 -11.8 L 243.2 -11.8 Q 243.2 -21.4 248.4 -27.1 L 248.4 -27.1 L 248.4 -27.1 Q 253.9 -33.4 263.6 -33.4 L 263.6 -33.4 L 263.6 -33.4 Q 269.5 -33.4 272.5 -30.9 L 272.5 -30.9 L 272.5 -30.9 Q 274.7 -29 274.7 -25.9 L 274.7 -25.9 L 274.7 -25.9 Q 274.7 -14.8 255.6 -14.8 L 255.6 -14.8 L 255.6 -14.8 Q 255.3 -13.2 255.3 -11.8 L 255.3 -11.8 L 255.3 -11.8 Q 255.3 -8.9 256.6 -7.8 L 256.6 -7.8 L 256.6 -7.8 Q 257.9 -6.7 260.3 -6.7 L 260.3 -6.7 L 260.3 -6.7 Q 262.7 -6.7 265.2 -7.8 L 265.2 -7.8 L 265.2 -7.8 Q 267.8 -8.9 268.8 -10.6 Z M 256 -17.5 L 256 -17.5 L 256 -17.5 Q 260.5 -17.5 263 -20.3 L 263 -20.3 L 263 -20.3 Q 265.6 -22.9 265.6 -27.1 L 265.6 -27.1 L 265.6 -27.1 Q 265.6 -28.6 265.1 -29.4 L 265.1 -29.4 L 265.1 -29.4 Q 264.6 -30.2 263.5 -30.2 L 263.5 -30.2 L 263.5 -30.2 Q 262.4 -30.2 261.5 -29.8 L 261.5 -29.8 L 261.5 -29.8 Q 260.6 -29.4 259.6 -28 L 259.6 -28 L 259.6 -28 Q 257.3 -24.8 256 -17.5 Z M 296.6 -17.7 L 296.6 -17.7 L 296.6 -17.7 Q 298.8 -21.7 298.8 -25.8 L 298.8 -25.8 L 298.8 -25.8 Q 298.8 -28.5 296.9 -28.5 L 296.9 -28.5 L 296.9 -28.5 Q 295.4 -28.5 293.8 -26 L 293.8 -26 L 293.8 -26 Q 292.2 -23.4 291.7 -20 L 291.7 -20 L 288.4 0 L 275.3 1.3 L 281.8 -32.1 L 292.2 -33.4 L 291 -27 L 291 -27 Q 294.1 -33.4 301 -33.4 L 301 -33.4 L 301 -33.4 Q 304.7 -33.4 306.7 -31.5 L 306.7 -31.5 L 306.7 -31.5 Q 308.7 -29.6 308.7 -25.7 L 308.7 -25.7 L 308.7 -25.7 Q 308.7 -21.9 306.1 -19.4 L 306.1 -19.4 L 306.1 -19.4 Q 303.6 -16.9 299.2 -16.9 L 299.2 -16.9 L 299.2 -16.9 Q 297.3 -16.9 296.6 -17.7 Z M 329.7 -7.1 L 329.7 -7.1 L 329.7 -7.1 Q 326.4 -3.7 320.4 -3.7 L 320.4 -3.7 L 320.4 -3.7 Q 312.9 -3.7 311.4 -9.2 L 311.4 -9.2 L 311.4 -9.2 Q 310.9 -10.8 310.9 -12.7 L 310.9 -12.7 L 310.9 -12.7 Q 310.9 -14.5 311.2 -16.4 L 311.2 -16.4 L 314.2 -32.1 L 327 -33.4 L 323.5 -15.1 L 323.5 -15.1 Q 323.4 -14.2 323.2 -13.4 L 323.2 -13.4 L 323.2 -13.4 Q 323 -12.5 323 -11.6 L 323 -11.6 L 323 -11.6 Q 323 -10.6 323.3 -10 L 323.3 -10 L 323.3 -10 Q 323.7 -9.4 324.1 -9.1 L 324.1 -9.1 L 324.1 -9.1 Q 324.9 -8.6 326.2 -8.6 L 326.2 -8.6 L 326.2 -8.6 Q 327.6 -8.6 328.7 -10.2 L 328.7 -10.2 L 328.7 -10.2 Q 329.9 -11.8 330.5 -14.7 L 330.5 -14.7 L 333.9 -32.1 L 346.3 -33.4 L 341.6 -8.6 L 341.6 -8.6 Q 339.3 3.5 334.5 8.3 L 334.5 8.3 L 334.5 8.3 Q 332 10.7 328.9 11.7 L 328.9 11.7 L 328.9 11.7 Q 325.7 12.7 321.6 12.7 L 321.6 12.7 L 321.6 12.7 Q 315 12.7 311.2 10.6 L 311.2 10.6 L 311.2 10.6 Q 307.4 8.5 307.4 5 L 307.4 5 L 307.4 5 Q 307.4 2.5 309.4 1 L 309.4 1 L 309.4 1 Q 311.3 -0.5 314.3 -0.5 L 314.3 -0.5 L 314.3 -0.5 Q 317 -0.5 319 0.6 L 319 0.6 L 319 0.6 Q 320.2 1.3 320.8 2.2 L 320.8 2.2 L 320.8 2.2 Q 319.3 3.5 319.3 5.5 L 319.3 5.5 L 319.3 5.5 Q 319.3 8.3 321.8 8.3 L 321.8 8.3 L 321.8 8.3 Q 326 8.3 328.4 -1.3 L 328.4 -1.3 L 328.4 -1.3 Q 329.1 -4.1 329.7 -7.1 Z" fill="url(#editing-gradient-gradient)"></path></g></g><style>text {
  font-size: 64px;
  font-family: Arial Black;
  dominant-baseline: central;
  text-anchor: middle;
}</style></svg>